<svg width="10" height="19" viewBox="0 0 10 19" fill="none" xmlns="http://www.w3.org/2000/svg">
<path d="M1.04228e-07 0C1.04228e-07 0.776225 0.180726 1.54179 0.527864 2.23607C0.875003 2.93034 1.37902 3.53426 2 4C1.37902 4.46574 0.875003 5.06966 0.527864 5.76393C0.180726 6.45821 1.04228e-07 7.22377 1.04228e-07 8C-0.000235151 9.15265 0.397783 10.27 1.12669 11.1629C1.8556 12.0558 2.87064 12.6695 4 12.9V15H2V17H4V19H6V17H8V15H6V12.9C7.12936 12.6695 8.1444 12.0558 8.87331 11.1629C9.60222 10.27 10.0002 9.15265 10 8C10 7.22377 9.81927 6.45821 9.47214 5.76393C9.125 5.06966 8.62098 4.46574 8 4C8.62098 3.53426 9.125 2.93034 9.47214 2.23607C9.81927 1.54179 10 0.776225 10 0H8C8 0.795649 7.68393 1.55871 7.12132 2.12132C6.55871 2.68393 5.79565 3 5 3C4.20435 3 3.44129 2.68393 2.87868 2.12132C2.31607 1.55871 2 0.795649 2 0H1.04228e-07ZM5 5C5.79565 5 6.55871 5.31607 7.12132 5.87868C7.68393 6.44129 8 7.20435 8 8C8 8.79565 7.68393 9.55871 7.12132 10.1213C6.55871 10.6839 5.79565 11 5 11C4.20435 11 3.44129 10.6839 2.87868 10.1213C2.31607 9.55871 2 8.79565 2 8C2 7.20435 2.31607 6.44129 2.87868 5.87868C3.44129 5.31607 4.20435 5 5 5V5Z" fill="#F95587"/>
</svg>
