<svg width="18" height="18" viewBox="0 0 18 18" fill="none" xmlns="http://www.w3.org/2000/svg">
<path d="M6 6C7.29 6 8.5 6.41 9.47 7.11L14.58 2H10V0H18V8H16V3.41L10.89 8.5C11.59 9.5 12 10.7 12 12C12 13.5913 11.3679 15.1174 10.2426 16.2426C9.11742 17.3679 7.5913 18 6 18C4.4087 18 2.88258 17.3679 1.75736 16.2426C0.632141 15.1174 0 13.5913 0 12C0 10.4087 0.632141 8.88258 1.75736 7.75736C2.88258 6.63214 4.4087 6 6 6ZM6 8C4.93913 8 3.92172 8.42143 3.17157 9.17157C2.42143 9.92172 2 10.9391 2 12C2 13.0609 2.42143 14.0783 3.17157 14.8284C3.92172 15.5786 4.93913 16 6 16C7.06087 16 8.07828 15.5786 8.82843 14.8284C9.57857 14.0783 10 13.0609 10 12C10 10.9391 9.57857 9.92172 8.82843 9.17157C8.07828 8.42143 7.06087 8 6 8Z" fill="#42BFDD"/>
</svg>
