<svg width="38" height="38" viewBox="0 0 38 38" fill="none" xmlns="http://www.w3.org/2000/svg">
<path d="M27.1584 23.8994H25.442L24.8336 23.3127C26.9628 20.8359 28.2447 17.6204 28.2447 14.1224C28.2447 6.32247 21.9222 0 14.1224 0C6.32247 0 0 6.32247 0 14.1224C0 21.9222 6.32247 28.2447 14.1224 28.2447C17.6204 28.2447 20.8359 26.9628 23.3127 24.8336L23.8994 25.442V27.1584L34.7627 38L38 34.7627L27.1584 23.8994ZM14.1224 23.8994C8.71241 23.8994 4.34534 19.5323 4.34534 14.1224C4.34534 8.71241 8.71241 4.34534 14.1224 4.34534C19.5323 4.34534 23.8994 8.71241 23.8994 14.1224C23.8994 19.5323 19.5323 23.8994 14.1224 23.8994Z" fill="white"/>
</svg>
