<svg width="20" height="20" viewBox="0 0 20 20" fill="none" xmlns="http://www.w3.org/2000/svg">
<path fill-rule="evenodd" clip-rule="evenodd" d="M4.28571 12.7136V1.42857C4.28571 0.639593 3.64612 0 2.85714 0H1.42857C0.639593 0 0 0.639593 0 1.42857V18.5714C0 19.3604 0.639593 20 1.42857 20H18.5714C19.3604 20 20 19.3604 20 18.5714V17.1429C20 16.3539 19.3604 15.7143 18.5714 15.7143H7.3459L16.1624 6.89776C16.7203 6.33986 16.7203 5.43534 16.1624 4.87745L15.1523 3.8673C14.5944 3.30941 13.6899 3.30941 13.132 3.8673L4.28571 12.7136ZM3.6266 13.3727V12.1577C3.6266 11.7632 3.3068 11.4434 2.91231 11.4434H1.48374C1.08925 11.4434 0.769457 11.7632 0.769457 12.1577V13.5863C0.769457 13.9808 1.08925 14.3006 1.48374 14.3006H2.69869L3.6266 13.3727ZM5.72978 17.3304C5.72936 17.3405 5.72915 17.3506 5.72915 17.3607V18.7893C5.72915 19.1838 6.04895 19.5036 6.44344 19.5036H7.87201C8.2665 19.5036 8.5863 19.1838 8.5863 18.7893V17.3607C8.5863 16.9662 8.2665 16.6464 7.87201 16.6464H6.44344C6.43328 16.6464 6.42316 16.6467 6.4131 16.6471L5.72978 17.3304ZM0.769457 3.57143C0.769457 3.17694 1.08925 2.85714 1.48374 2.85714H2.91231C3.3068 2.85714 3.6266 3.17694 3.6266 3.57143V5C3.6266 5.39449 3.3068 5.71429 2.91231 5.71429H1.48374C1.08925 5.71429 0.769457 5.39449 0.769457 5V3.57143ZM1.48374 7.14286C1.08925 7.14286 0.769457 7.46265 0.769457 7.85714V9.28571C0.769457 9.6802 1.08925 10 1.48374 10H2.91231C3.3068 10 3.6266 9.6802 3.6266 9.28571V7.85714C3.6266 7.46265 3.3068 7.14286 2.91231 7.14286H1.48374ZM10 17.3607C10 16.9662 10.3198 16.6464 10.7143 16.6464H12.1429C12.5373 16.6464 12.8571 16.9662 12.8571 17.3607V18.7893C12.8571 19.1838 12.5373 19.5036 12.1429 19.5036H10.7143C10.3198 19.5036 10 19.1838 10 18.7893V17.3607ZM14.9857 16.6464C14.5912 16.6464 14.2714 16.9662 14.2714 17.3607V18.7893C14.2714 19.1838 14.5912 19.5036 14.9857 19.5036H16.4143C16.8088 19.5036 17.1286 19.1838 17.1286 18.7893V17.3607C17.1286 16.9662 16.8088 16.6464 16.4143 16.6464H14.9857ZM3.6266 17.672C3.6266 18.4609 2.98701 19.1005 2.19803 19.1005C1.40905 19.1005 0.769457 18.4609 0.769457 17.672C0.769457 16.883 1.40905 16.2434 2.19803 16.2434C2.98701 16.2434 3.6266 16.883 3.6266 17.672ZM5.62762 13.3622C5.34867 13.0833 5.34867 12.631 5.62762 12.3521L6.63777 11.3419C6.91672 11.063 7.36898 11.063 7.64792 11.3419L8.65807 12.3521C8.93702 12.631 8.93702 13.0833 8.65807 13.3622L7.64792 14.3724C7.36898 14.6513 6.91672 14.6513 6.63777 14.3724L5.62762 13.3622ZM8.48476 9.49493C8.20581 9.77387 8.20581 10.2261 8.48476 10.5051L9.49491 11.5152C9.77386 11.7942 10.2261 11.7942 10.5051 11.5152L11.5152 10.5051C11.7942 10.2261 11.7942 9.77387 11.5152 9.49493L10.5051 8.48477C10.2261 8.20583 9.77386 8.20583 9.49491 8.48477L8.48476 9.49493ZM11.3276 7.64794C11.0487 7.36899 11.0487 6.91673 11.3276 6.63778L12.3378 5.62763C12.6167 5.34868 13.069 5.34868 13.3479 5.62763L14.3581 6.63778C14.637 6.91673 14.637 7.36899 14.3581 7.64794L13.3479 8.65809C13.069 8.93703 12.6167 8.93703 12.3378 8.65809L11.3276 7.64794Z" fill="black"/>
</svg>
