<svg width="512" height="512" viewBox="0 0 512 512" fill="none" xmlns="http://www.w3.org/2000/svg">
<path fill-rule="evenodd" clip-rule="evenodd" d="M229.723 452.85C239.45 454.339 249.412 455.111 259.556 455.111C367.558 455.111 455.111 367.558 455.111 259.556C455.111 151.553 367.558 64 259.556 64C252.31 64 245.155 64.3941 238.114 65.1621C291.689 105.751 327.111 176.062 327.111 256C327.111 340.04 287.96 413.44 229.723 452.85ZM256 512C397.385 512 512 397.385 512 256C512 114.615 397.385 0 256 0C114.615 0 0 114.615 0 256C0 397.385 114.615 512 256 512Z" fill="#705746"/>
</svg>
