<svg width="478" height="512" viewBox="0 0 478 512" fill="none" xmlns="http://www.w3.org/2000/svg">
<path fill-rule="evenodd" clip-rule="evenodd" d="M71.2336 42.5656C77.4299 18.1014 99.593 0 125.983 0C145.778 0 163.195 10.1847 173.279 25.6H189.792C200.051 15.0716 214.384 8.53333 230.245 8.53333C253.499 8.53333 273.471 22.5882 282.129 42.6667H295.954C304.617 37.2585 314.853 34.1333 325.818 34.1333C349.073 34.1333 369.044 48.1882 377.702 68.2667H415.297C415.618 68.2667 415.919 68.3532 416.178 68.5041C417.895 68.347 419.634 68.2667 421.391 68.2667C452.582 68.2667 477.866 93.5514 477.866 124.742V294.086L477.867 294.4L477.866 294.714V297.153C477.866 298.186 477.838 299.215 477.782 300.239C474.384 417.717 368.749 512 238.933 512C106.974 512 0 414.577 0 294.4C0 236.391 24.9249 183.683 65.5535 144.675C65.4522 201.228 66.4074 259.694 70.8107 258.691C82.6011 256.003 73.3891 80.8395 71.2336 42.5656Z" fill="white"/>
</svg>
