<svg width="512" height="444" viewBox="0 0 512 444" fill="none" xmlns="http://www.w3.org/2000/svg">
<path fill-rule="evenodd" clip-rule="evenodd" d="M178.712 443.733C253.715 443.733 317.927 402.048 344.436 342.956C344.76 342.235 238.007 370.699 241.411 360.637C242.931 356.144 308.371 332.238 356.048 304.354C383.451 288.327 396.07 254.4 396.07 254.4C396.07 254.4 349.903 276.815 326.564 282.501C279.532 293.961 238.131 292.727 238.131 291.533C238.131 288.951 306.876 275.889 402.424 217.664C447.367 190.277 459.574 143.103 459.574 143.103C459.574 143.103 410.163 172.535 380.293 182.252C309.457 205.295 244.815 212.239 244.815 209.121C244.815 202.445 301.702 186.802 362.016 157.577C393.376 142.382 420.535 122.53 452.008 100.453C503.506 64.332 511.999 0 511.999 0C511.999 0 461.207 32.7601 436.42 43.6394C334.141 88.531 243.829 112.079 178.712 117.177C80.416 124.873 0 193.456 0 282.501C0 371.547 80.0119 443.733 178.712 443.733Z" fill="white"/>
</svg>
