<svg width="457" height="494" viewBox="0 0 457 494" fill="none" xmlns="http://www.w3.org/2000/svg">
<path fill-rule="evenodd" clip-rule="evenodd" d="M73.2266 430.205C71.4692 428.552 69.7312 426.867 68.0134 425.149C-22.6711 334.465 -22.6711 187.436 68.0134 96.7516C158.698 6.0667 447.654 0 447.654 0C447.654 0 487.095 334.465 396.411 425.149C315.871 505.689 190.89 514.699 100.407 452.18L173.315 362.709L289.865 337.546L194.726 328.035L255.188 266.473L324.012 251.396L269.59 235.279L324.012 137.103L246.602 223.931L216.709 181.748L227.232 251.396L173.315 312.178L148.322 235.278V337.546L73.2266 430.205Z" fill="#7AC74C"/>
</svg>
