<svg width="500" height="437" viewBox="0 0 500 437" fill="none" xmlns="http://www.w3.org/2000/svg">
<path fill-rule="evenodd" clip-rule="evenodd" d="M378.245 0.566528L379.82 138.917L259.15 196.844L257.662 66.2147L378.245 0.566528Z" fill="white"/>
<path fill-rule="evenodd" clip-rule="evenodd" d="M499.211 218.572L379.755 286.899L260.229 218.464L379.694 155.712L499.211 218.572Z" fill="white"/>
<path fill-rule="evenodd" clip-rule="evenodd" d="M238.981 218.572L119.526 286.899L0 218.464L119.464 155.712L238.981 218.572Z" fill="white"/>
<path fill-rule="evenodd" clip-rule="evenodd" d="M118.184 0L242.17 61.4057L239 195.222L121.934 137.244L118.184 0Z" fill="white"/>
<path fill-rule="evenodd" clip-rule="evenodd" d="M381.619 435.05L257.633 373.644L260.803 239.827L377.869 297.806L381.619 435.05Z" fill="white"/>
<path fill-rule="evenodd" clip-rule="evenodd" d="M122.466 436.295L120.89 297.945L241.561 240.018L243.049 370.646L122.466 436.295Z" fill="white"/>
</svg>
