<svg width="514" height="404" viewBox="0 0 514 404" fill="none" xmlns="http://www.w3.org/2000/svg">
<path fill-rule="evenodd" clip-rule="evenodd" d="M396.138 190.757C396.109 190.717 396.097 190.667 396.105 190.618L428.769 0.151798C428.784 0.0640982 428.861 0 428.949 0H439.287C439.367 0 439.437 0.0517008 439.461 0.127701L513.051 233.131C513.074 233.203 513.049 233.283 512.989 233.33L458.73 275.693C458.649 275.756 458.532 275.74 458.471 275.657L396.138 190.757ZM0 317.022C0 317.101 0.050796 317.171 0.125891 317.196L111.975 353.767C112.029 353.785 112.089 353.776 112.136 353.744L362.145 181.144C362.187 181.115 362.215 181.07 362.222 181.02L389.032 1.1284C389.049 1.018 388.963 0.9188 388.852 0.9188H167.406C167.351 0.9188 167.3 0.943001 167.265 0.984901L0.042026 202.714C0.01486 202.747 0 202.788 0 202.831V317.022ZM158.583 363.085L280.776 403.112C280.831 403.13 280.892 403.121 280.939 403.087L426.418 298.734C426.499 298.677 426.519 298.566 426.464 298.484L371.928 217.329C371.871 217.244 371.757 217.222 371.673 217.28L158.583 363.085Z" fill="#B6A136"/>
</svg>
