<svg width="512" height="441" viewBox="0 0 512 441" fill="none" xmlns="http://www.w3.org/2000/svg">
<path fill-rule="evenodd" clip-rule="evenodd" d="M0.0511107 220.527C-0.0170046 220.411 -0.0170388 220.267 0.0510196 220.15L128.795 0.184299C128.862 0.0701995 128.985 0 129.117 0H384.294C384.427 0 384.55 0.0708016 384.617 0.185902L511.949 220.152C512.016 220.267 512.016 220.41 511.949 220.525L384.617 440.244C384.55 440.359 384.427 440.43 384.294 440.43H129.117C128.985 440.43 128.862 440.36 128.795 440.246L0.0511107 220.527ZM374.617 220.215C374.617 285.703 321.528 338.792 256.04 338.792C190.552 338.792 137.463 285.703 137.463 220.215C137.463 154.726 190.552 101.638 256.04 101.638C321.528 101.638 374.617 154.726 374.617 220.215Z" fill="white"/>
</svg>
